<svg width="32" height="32" viewBox="0 0 32 32" fill="none" xmlns="http://www.w3.org/2000/svg">
<g clip-path="url(#clip0_1_2056)">
<path d="M2.7334 17.3338H10.0361C10.2642 21.5563 11.6101 25.6423 13.9361 29.1738C11.0226 28.7162 8.34299 27.306 6.31609 25.1638C4.28918 23.0216 3.02929 20.2681 2.7334 17.3338ZM2.7334 14.6671C3.02929 11.7329 4.28918 8.97938 6.31609 6.83717C8.34299 4.69495 11.0226 3.28478 13.9361 2.82715C11.6101 6.35863 10.2642 10.4447 10.0361 14.6671H2.7334ZM29.2667 14.6671H21.9641C21.7359 10.4447 20.39 6.35863 18.0641 2.82715C20.9775 3.28478 23.6571 4.69495 25.684 6.83717C27.711 8.97938 28.9708 11.7329 29.2667 14.6671ZM29.2667 17.3338C28.9708 20.2681 27.711 23.0216 25.684 25.1638C23.6571 27.306 20.9775 28.7162 18.0641 29.1738C20.39 25.6423 21.7359 21.5563 21.9641 17.3338H29.2681H29.2667ZM12.7067 17.3338H19.2934C19.0739 20.9331 17.9405 24.4171 16.0001 27.4565C14.0597 24.4171 12.9262 20.9331 12.7067 17.3338ZM12.7067 14.6671C12.9262 11.0678 14.0597 7.5839 16.0001 4.54448C17.9405 7.5839 19.0739 11.0678 19.2934 14.6671H12.7067Z" fill="#99A2AD"/>
</g>
<defs>
<clipPath id="clip0_1_2056">
<rect width="32" height="32" fill="white"/>
</clipPath>
</defs>
</svg>
