<svg width="18" height="18" viewBox="0 0 18 18" fill="none" xmlns="http://www.w3.org/2000/svg">
<g clip-path="url(#clip0_1_2071)">
<path d="M8.99957 1.5C10.392 1.5 11.7273 2.05312 12.7119 3.03769C13.6964 4.02226 14.2496 5.35761 14.2496 6.75H15.0551C15.244 6.75001 15.4259 6.8213 15.5646 6.94964C15.7032 7.07798 15.7883 7.2539 15.8028 7.44225L16.4373 15.6923C16.4526 15.8906 16.3885 16.0868 16.2591 16.2379C16.1297 16.389 15.9456 16.4824 15.7473 16.4977L15.6896 16.5H2.30957C2.11066 16.5 1.91989 16.421 1.77924 16.2803C1.63859 16.1397 1.55957 15.9489 1.55957 15.75L1.56182 15.6923L2.19632 7.44225C2.21087 7.2539 2.29596 7.07798 2.43458 6.94964C2.57321 6.8213 2.75516 6.75001 2.94407 6.75H3.74957C3.74957 5.35761 4.30269 4.02226 5.28726 3.03769C6.27183 2.05312 7.60718 1.5 8.99957 1.5ZM10.4996 9.75H7.49957V11.25H10.4996V9.75ZM8.99957 3C8.03322 3.00006 7.1042 3.37316 6.40624 4.04149C5.70828 4.70983 5.29526 5.62181 5.25332 6.58725L5.24957 6.75H12.7496C12.7495 5.78365 12.3764 4.85463 11.7081 4.15667C11.0397 3.4587 10.1278 3.04569 9.16232 3.00375L8.99957 3Z" fill="#6D7885"/>
</g>
<defs>
<clipPath id="clip0_1_2071">
<rect width="18" height="18" fill="white"/>
</clipPath>
</defs>
</svg>
