<svg width="18" height="18" viewBox="0 0 18 18" fill="none" xmlns="http://www.w3.org/2000/svg">
<g clip-path="url(#clip0_1_2061)">
<path d="M10.8375 14.25L9 16.875L7.1625 14.25H2.25C2.05109 14.25 1.86032 14.171 1.71967 14.0303C1.57902 13.8897 1.5 13.6989 1.5 13.5V3C1.5 2.80109 1.57902 2.61032 1.71967 2.46967C1.86032 2.32902 2.05109 2.25 2.25 2.25H15.75C15.9489 2.25 16.1397 2.32902 16.2803 2.46967C16.421 2.61032 16.5 2.80109 16.5 3V13.5C16.5 13.6989 16.421 13.8897 16.2803 14.0303C16.1397 14.171 15.9489 14.25 15.75 14.25H10.8375Z" fill="#6D7885"/>
</g>
<defs>
<clipPath id="clip0_1_2061">
<rect width="18" height="18" fill="white"/>
</clipPath>
</defs>
</svg>
