<svg width="26" height="26" viewBox="0 0 26 26" fill="none" xmlns="http://www.w3.org/2000/svg">
<g clip-path="url(#clip0_1_1863)">
<path d="M25.4241 6.4244L25.4566 6.63673C25.1424 5.52198 24.2942 4.66182 23.2163 4.34873L23.1935 4.34332C21.1666 3.79298 13.0102 3.79298 13.0102 3.79298C13.0102 3.79298 4.87434 3.78215 2.82684 4.34332C1.72834 4.66182 0.879009 5.52198 0.570259 6.61398L0.564842 6.63673C-0.192408 10.592 -0.197825 15.3446 0.598426 19.5793L0.564842 19.3648C0.879009 20.4796 1.72726 21.3397 2.80518 21.6528L2.82793 21.6582C4.85268 22.2096 13.0113 22.2096 13.0113 22.2096C13.0113 22.2096 21.146 22.2096 23.1946 21.6582C24.2942 21.3397 25.1435 20.4796 25.4523 19.3876L25.4577 19.3648C25.8022 17.5253 25.9993 15.4085 25.9993 13.2461C25.9993 13.1671 25.9993 13.0869 25.9983 13.0067C25.9993 12.9331 25.9993 12.8453 25.9993 12.7576C25.9993 10.5941 25.8022 8.47732 25.4241 6.4244ZM10.408 16.9566V9.05582L17.1962 13.0121L10.408 16.9566Z" fill="black"/>
</g>
<defs>
<clipPath id="clip0_1_1863">
<rect width="26" height="26" fill="white"/>
</clipPath>
</defs>
</svg>
